# xmcd
#
# Track frame offsets: 
#        150
#        14510
#        25667
#        41918
#        50783
#        82898
#        101320
#        118180
#        143306
#        167110
#        189249
#        205721
#        226089
#        247641
#
# Disc length: 3729 seconds
#
# Revision: 0
# Processed by: cddbd v1.5.2PL0 Copyright (c) Steve Scherf et al.
# Submitted via: ExactAudioCopy v0.99pb4
#
DISCID=a30e8f0e
DTITLE=Jubal Kane - Flying High
DYEAR=2007
DGENRE=Blues
TTITLE0=Blame It On Kane
TTITLE1=Come Home With Me
TTITLE2=Take Me To The River
TTITLE3=Pit Bull
TTITLE4=Cross Your Heart
TTITLE5=Heavy Load
TTITLE6=Before The Fall
TTITLE7=Polk Salad
TTITLE8=Tail Dragger
TTITLE9=High Heel Sneakers
TTITLE10=Ladies Man
TTITLE11=She's Dangerous
TTITLE12=Nashville
TTITLE13=Jam
EXTD=
EXTT0=
EXTT1=
EXTT2=
EXTT3=
EXTT4=
EXTT5=
EXTT6=
EXTT7=
EXTT8=
EXTT9=
EXTT10=
EXTT11=
EXTT12=
EXTT13=
PLAYORDER=
